<svg t="1682171095719" class="icon" viewBox="0 0 1024 1024" version="1.1" xmlns="http://www.w3.org/2000/svg" p-id="10024" width="200" height="200"><path d="M970.24 983.04c-17.92 17.92-48.64 23.04-74.24 23.04L130.56 1006.08c-25.6 0-58.88-5.12-76.8-23.04-17.92-17.92-17.92-43.52-17.92-69.12l0-716.8c0-25.6 7.68-61.44 25.6-79.36s40.96-33.28 76.8-30.72L307.2 87.04 307.2 17.92l69.12 0 0 69.12 273.92 0L650.24 17.92 716.8 17.92l0 69.12 171.52 0c25.6 0 61.44 15.36 79.36 33.28s23.04 51.2 23.04 76.8l0 716.8C988.16 936.96 988.16 965.12 970.24 983.04zM921.6 153.6c0 0-30.72 0-53.76 0L716.8 153.6l0 135.68-69.12 0L647.68 153.6 376.32 153.6l0 135.68L307.2 289.28 307.2 153.6 156.16 153.6C133.12 153.6 102.4 153.6 102.4 153.6s0 38.4 0 61.44l0 688.64c0 23.04 0 33.28 0 33.28s10.24 0 33.28 0l701.44 0c23.04 0 81.92 0 81.92 0s0-58.88 0-79.36L919.04 215.04C921.6 192 921.6 153.6 921.6 153.6zM171.52 391.68l680.96 0L852.48 460.8 171.52 460.8 171.52 391.68zM286.72 555.52c30.72 0 56.32 25.6 56.32 56.32 0 30.72-25.6 56.32-56.32 56.32S230.4 642.56 230.4 611.84C230.4 578.56 256 555.52 286.72 555.52zM286.72 752.64c30.72 0 56.32 25.6 56.32 56.32 0 30.72-25.6 56.32-56.32 56.32S230.4 839.68 230.4 808.96C230.4 778.24 256 752.64 286.72 752.64zM512 555.52c30.72 0 56.32 25.6 56.32 56.32 0 30.72-25.6 56.32-56.32 56.32-30.72 0-56.32-25.6-56.32-56.32C455.68 578.56 481.28 555.52 512 555.52zM512 752.64c30.72 0 56.32 25.6 56.32 56.32 0 30.72-25.6 56.32-56.32 56.32-30.72 0-56.32-25.6-56.32-56.32C455.68 778.24 481.28 752.64 512 752.64zM737.28 555.52c30.72 0 56.32 25.6 56.32 56.32 0 30.72-25.6 56.32-56.32 56.32-30.72 0-56.32-25.6-56.32-56.32C680.96 578.56 706.56 555.52 737.28 555.52zM737.28 752.64c30.72 0 56.32 25.6 56.32 56.32 0 30.72-25.6 56.32-56.32 56.32-30.72 0-56.32-25.6-56.32-56.32C680.96 778.24 706.56 752.64 737.28 752.64z" p-id="10025"></path></svg>